<svg xmlns="http://www.w3.org/2000/svg" xmlns:xlink="http://www.w3.org/1999/xlink" width="1024" zoomAndPan="magnify" viewBox="0 0 768 767.999994" height="1024" preserveAspectRatio="xMidYMid meet" version="1.0"><defs><g/><clipPath id="524dbe30ed"><path d="M 10 327 L 188 327 L 188 530.179688 L 10 530.179688 Z M 10 327 " clip-rule="nonzero"/></clipPath></defs><path fill="#f0f1f0" d="M 276.628906 451.566406 C 258.832031 454.695312 241.59375 457.726562 223.257812 460.949219 C 221.136719 471.25 218.964844 481.992188 216.695312 492.710938 C 215.984375 496.082031 215.78125 499.9375 213.933594 502.574219 C 212.226562 505.003906 208.738281 507.203125 205.820312 507.519531 C 201.597656 507.976562 198.886719 504.605469 198.285156 500.460938 C 197.898438 497.789062 198.226562 494.9375 198.640625 492.230469 C 205.359375 448.492188 215.175781 405.441406 227.546875 362.96875 C 228.792969 358.6875 230.339844 354.371094 232.527344 350.511719 C 237.230469 342.21875 245.453125 340.234375 252.453125 346.597656 C 257.957031 351.601562 262.613281 357.910156 266.390625 364.371094 C 280.773438 388.976562 290.886719 415.417969 297.597656 443.050781 C 300.761719 456.082031 302.773438 469.441406 304.523438 482.753906 C 305.519531 490.339844 304.449219 498.183594 299.21875 504.320312 C 297.25 506.628906 293.691406 508.863281 290.863281 508.851562 C 286.578125 508.839844 286.539062 504.382812 285.988281 500.953125 C 283.625 486.335938 281.222656 471.71875 278.710938 457.125 C 278.378906 455.199219 277.332031 453.394531 276.628906 451.566406 Z M 244.277344 366.964844 C 238.464844 392.386719 232.964844 416.445312 227.121094 441.996094 C 235.792969 439.117188 242.546875 436.621094 249.449219 434.648438 C 256.34375 432.679688 263.390625 431.230469 270.339844 429.5625 C 266.625 411.742188 252.851562 378.210938 244.277344 366.964844 Z M 244.277344 366.964844 " fill-opacity="1" fill-rule="nonzero"/><path fill="#f0f1f0" d="M 480.796875 373.292969 C 500.097656 361.460938 518.3125 350.285156 536.539062 339.132812 C 538.011719 338.230469 539.546875 337.4375 541.085938 336.65625 C 544.914062 334.714844 549.101562 332.804688 552.140625 337.339844 C 555.058594 341.6875 552.128906 345.207031 549.058594 348.195312 C 546.089844 351.085938 543.109375 354.007812 539.832031 356.519531 C 530.238281 363.867188 520.492188 371.019531 510.808594 378.25 C 507.824219 380.476562 504.851562 382.710938 500.867188 385.695312 C 506.625 390.164062 511.351562 394.113281 516.359375 397.671875 C 529.59375 407.070312 543.113281 416.074219 556.175781 425.703125 C 561.972656 429.972656 567.382812 434.96875 572.175781 440.34375 C 577.460938 446.273438 577.429688 453.6875 573.226562 458.269531 C 569.285156 462.570312 562.683594 463.128906 556.03125 459.558594 C 553.914062 458.417969 551.878906 457.046875 550.027344 455.515625 C 528.726562 437.941406 507.472656 420.308594 486.179688 402.722656 C 485.746094 402.363281 484.992188 402.390625 483.609375 402.039062 C 483.609375 404.804688 483.460938 407.398438 483.632812 409.96875 C 484.902344 428.925781 486.351562 447.871094 487.46875 466.839844 C 487.746094 471.621094 487.339844 476.503906 486.671875 481.261719 C 486.101562 485.3125 483.671875 488.308594 479.195312 488.617188 C 474.789062 488.921875 471.945312 486.359375 470.484375 482.574219 C 469.253906 479.386719 468.320312 475.96875 467.957031 472.574219 C 463.019531 426.46875 461.675781 380.222656 463.023438 333.890625 C 463.148438 329.582031 462.363281 324.351562 468.261719 322.824219 C 472.019531 321.855469 475.0625 325.449219 476.164062 333.011719 C 477.757812 343.9375 478.789062 354.949219 480.046875 365.925781 C 480.308594 368.234375 480.519531 370.550781 480.796875 373.292969 Z M 480.796875 373.292969 " fill-opacity="1" fill-rule="nonzero"/><path fill="#f0f1f0" d="M 692.070312 316.886719 C 684.703125 311.46875 676.824219 312.625 669.6875 316.308594 C 662.125 320.210938 654.511719 324.667969 648.300781 330.382812 C 640.433594 337.625 640.277344 344.941406 646.734375 353.457031 C 650.863281 358.90625 655.847656 363.867188 661.085938 368.289062 C 670.316406 376.078125 680.285156 382.996094 689.484375 390.824219 C 697.878906 397.964844 706.160156 405.375 713.535156 413.53125 C 718.300781 418.804688 722.164062 425.28125 725.003906 431.835938 C 733.070312 450.464844 728.203125 469.226562 712.542969 482.164062 C 700.722656 491.929688 686.703125 496.941406 671.746094 498.40625 C 662.21875 499.339844 652.46875 498.179688 642.828125 497.761719 C 640.449219 497.660156 637.710938 497.378906 635.84375 496.128906 C 633.484375 494.550781 630.761719 492.109375 630.265625 489.625 C 629.914062 487.867188 632.574219 484.738281 634.648438 483.449219 C 637.492188 481.683594 641.03125 480.976562 644.324219 479.996094 C 653.90625 477.136719 663.75 474.972656 673.03125 471.363281 C 680.007812 468.648438 686.753906 464.757812 692.75 460.253906 C 701.804688 453.453125 703.34375 445.5625 697.636719 435.667969 C 694.054688 429.464844 689.523438 423.578125 684.457031 418.507812 C 675.929688 409.96875 666.425781 402.410156 657.730469 394.027344 C 649.542969 386.140625 640.988281 378.394531 634.140625 369.40625 C 618.148438 348.402344 622.058594 327.25 643.925781 312.488281 C 655.339844 304.78125 667.835938 300.046875 681.933594 301.484375 C 690.375 302.347656 694.371094 306.660156 693.875 313.90625 C 693.816406 314.78125 692.882812 315.59375 692.070312 316.886719 Z M 692.070312 316.886719 " fill-opacity="1" fill-rule="nonzero"/><g clip-path="url(#524dbe30ed)"><path fill="#f0f1f0" d="M 187.621094 328.246094 C 186.84375 337.363281 180.589844 338.828125 175.15625 339.972656 C 164.699219 342.179688 154.054688 343.519531 143.464844 345.074219 C 133.613281 346.523438 123.734375 347.78125 113.636719 349.15625 C 113.375 352.710938 113.0625 355.425781 112.996094 358.148438 C 112.144531 394.445312 110.894531 430.738281 110.675781 467.039062 C 110.566406 485.304688 112.339844 503.585938 113.273438 521.863281 C 113.515625 526.546875 114.617188 531.34375 111.710938 535.984375 C 105.988281 535.308594 105.238281 530.914062 103.957031 527.183594 C 97.730469 509.066406 94.441406 490.421875 94.171875 471.25 C 93.640625 433.519531 95.363281 395.90625 99.878906 358.429688 C 100.121094 356.4375 99.910156 354.390625 99.910156 350.949219 C 89.160156 352.109375 78.6875 353.425781 68.179688 354.332031 C 52.695312 355.671875 37.195312 356.9375 21.679688 357.75 C 17.664062 357.960938 11.128906 360 10.414062 353.902344 C 9.691406 347.746094 16.5 348.277344 20.480469 347.609375 C 42.964844 343.84375 65.453125 339.964844 88.0625 337.097656 C 117.1875 333.402344 146.421875 330.550781 175.628906 327.539062 C 179.449219 327.144531 183.394531 327.964844 187.621094 328.246094 Z M 187.621094 328.246094 " fill-opacity="1" fill-rule="nonzero"/></g><path fill="#f0f1f0" d="M 389.414062 344.515625 C 371.859375 340.226562 351.882812 351.578125 346.273438 368.292969 C 344.222656 374.402344 345.234375 380.085938 349.078125 384.914062 C 353.136719 390.019531 357.605469 394.882812 362.40625 399.300781 C 370.785156 407.011719 379.964844 413.890625 388.023438 421.90625 C 393.824219 427.679688 399.3125 434.207031 403.230469 441.335938 C 410.800781 455.089844 408.828125 468.703125 399.214844 481.023438 C 393.359375 488.527344 385.792969 493.898438 376.871094 497.269531 C 368.210938 500.542969 359.984375 499.636719 352.132812 494.683594 C 348.738281 492.542969 345.117188 489.917969 347.035156 485.808594 C 348.203125 483.3125 352.089844 480.738281 354.875 480.597656 C 363.898438 480.140625 370.558594 475.75 376.519531 469.734375 C 384.894531 461.28125 385.671875 454.335938 378.257812 445.066406 C 373.335938 438.910156 367.347656 433.578125 361.679688 428.039062 C 353.78125 420.324219 345.128906 413.292969 337.878906 405.019531 C 319.664062 384.21875 321.085938 361.699219 341.160156 342.660156 C 349.066406 335.164062 358.121094 329.3125 368.972656 327.582031 C 373.839844 326.804688 379.390625 327.316406 384.046875 328.929688 C 390.820312 331.277344 391.933594 335.644531 389.414062 344.515625 Z M 389.414062 344.515625 " fill-opacity="1" fill-rule="nonzero"/><g fill="#f0f1f0" fill-opacity="1"><g transform="translate(60.611286, 285.70494)"><g><path d="M 5.453125 0 L 5.453125 -46.4375 L 10.546875 -46.4375 L 10.546875 -26.359375 L 35.0625 -26.359375 L 35.0625 -46.4375 L 40.171875 -46.4375 L 40.171875 0 L 35.0625 0 L 35.0625 -22.125 L 10.546875 -22.125 L 10.546875 0 Z M 5.453125 0 "/></g></g></g><g fill="#f0f1f0" fill-opacity="1"><g transform="translate(160.693168, 285.70494)"><g><path d="M 33.90625 -31.875 L 33.90625 0 L 29.28125 0 L 29.28125 -4.703125 C 27.96875 -2.878906 26.351562 -1.457031 24.4375 -0.4375 C 22.53125 0.582031 20.445312 1.09375 18.1875 1.09375 C 15.144531 1.09375 12.421875 0.367188 10.015625 -1.078125 C 7.609375 -2.535156 5.722656 -4.554688 4.359375 -7.140625 C 2.992188 -9.734375 2.3125 -12.6875 2.3125 -16 C 2.3125 -19.269531 2.976562 -22.1875 4.3125 -24.75 C 5.65625 -27.3125 7.519531 -29.316406 9.90625 -30.765625 C 12.289062 -32.222656 15.003906 -32.953125 18.046875 -32.953125 C 20.359375 -32.953125 22.476562 -32.441406 24.40625 -31.421875 C 26.34375 -30.398438 27.96875 -28.957031 29.28125 -27.09375 L 29.28125 -31.875 Z M 18.046875 -3.125 C 20.222656 -3.125 22.160156 -3.671875 23.859375 -4.765625 C 25.566406 -5.859375 26.894531 -7.378906 27.84375 -9.328125 C 28.800781 -11.273438 29.28125 -13.476562 29.28125 -15.9375 C 29.28125 -18.382812 28.800781 -20.582031 27.84375 -22.53125 C 26.894531 -24.488281 25.566406 -26.007812 23.859375 -27.09375 C 22.160156 -28.1875 20.222656 -28.734375 18.046875 -28.734375 C 15.910156 -28.734375 14.003906 -28.1875 12.328125 -27.09375 C 10.648438 -26.007812 9.332031 -24.5 8.375 -22.5625 C 7.425781 -20.632812 6.953125 -18.445312 6.953125 -16 C 6.953125 -13.5 7.425781 -11.273438 8.375 -9.328125 C 9.332031 -7.378906 10.648438 -5.859375 12.328125 -4.765625 C 14.003906 -3.671875 15.910156 -3.125 18.046875 -3.125 Z M 18.046875 -3.125 "/></g></g></g><g fill="#f0f1f0" fill-opacity="1"><g transform="translate(253.355643, 285.70494)"><g><path d="M 19.953125 -32.953125 C 21.035156 -32.953125 22.078125 -32.796875 23.078125 -32.484375 L 23.078125 -28.265625 C 22.128906 -28.710938 21.085938 -28.9375 19.953125 -28.9375 C 18.003906 -28.9375 16.1875 -28.390625 14.5 -27.296875 C 12.820312 -26.210938 11.472656 -24.632812 10.453125 -22.5625 C 9.429688 -20.5 8.921875 -18.0625 8.921875 -15.25 L 8.921875 0 L 4.296875 0 L 4.296875 -31.875 L 8.921875 -31.875 L 8.921875 -25.46875 C 10.148438 -27.832031 11.703125 -29.671875 13.578125 -30.984375 C 15.460938 -32.296875 17.585938 -32.953125 19.953125 -32.953125 Z M 19.953125 -32.953125 "/></g></g></g><g fill="#f0f1f0" fill-opacity="1"><g transform="translate(330.907067, 285.70494)"><g><path d="M 38.203125 -32.953125 C 41.148438 -32.953125 43.597656 -31.921875 45.546875 -29.859375 C 47.503906 -27.796875 48.484375 -24.945312 48.484375 -21.3125 L 48.484375 0 L 43.859375 0 L 43.859375 -19.265625 C 43.859375 -22.628906 43.222656 -25.046875 41.953125 -26.515625 C 40.679688 -27.992188 39.019531 -28.734375 36.96875 -28.734375 C 34.476562 -28.734375 32.539062 -27.769531 31.15625 -25.84375 C 29.769531 -23.914062 28.960938 -21.296875 28.734375 -17.984375 L 28.734375 0 L 24.109375 0 L 24.109375 -19.265625 C 24.109375 -22.628906 23.472656 -25.046875 22.203125 -26.515625 C 20.929688 -27.992188 19.273438 -28.734375 17.234375 -28.734375 C 14.460938 -28.734375 12.382812 -27.578125 11 -25.265625 C 9.613281 -22.953125 8.921875 -19.84375 8.921875 -15.9375 L 8.921875 0 L 4.296875 0 L 4.296875 -31.875 L 8.921875 -31.875 L 8.921875 -26.890625 C 9.960938 -28.847656 11.289062 -30.347656 12.90625 -31.390625 C 14.519531 -32.429688 16.367188 -32.953125 18.453125 -32.953125 C 20.765625 -32.953125 22.78125 -32.328125 24.5 -31.078125 C 26.226562 -29.835938 27.4375 -28.054688 28.125 -25.734375 C 29.125 -28.003906 30.484375 -29.773438 32.203125 -31.046875 C 33.929688 -32.316406 35.929688 -32.953125 38.203125 -32.953125 Z M 38.203125 -32.953125 "/></g></g></g><g fill="#f0f1f0" fill-opacity="1"><g transform="translate(437.795711, 285.70494)"><g><path d="M 18.1875 1.09375 C 15.144531 1.09375 12.421875 0.367188 10.015625 -1.078125 C 7.609375 -2.535156 5.722656 -4.566406 4.359375 -7.171875 C 2.992188 -9.785156 2.3125 -12.726562 2.3125 -16 C 2.3125 -19.269531 2.976562 -22.1875 4.3125 -24.75 C 5.65625 -27.3125 7.519531 -29.316406 9.90625 -30.765625 C 12.289062 -32.222656 15.003906 -32.953125 18.046875 -32.953125 C 21.085938 -32.953125 23.8125 -32.222656 26.21875 -30.765625 C 28.625 -29.316406 30.503906 -27.300781 31.859375 -24.71875 C 33.222656 -22.132812 33.90625 -19.207031 33.90625 -15.9375 C 33.90625 -12.664062 33.234375 -9.734375 31.890625 -7.140625 C 30.554688 -4.554688 28.695312 -2.535156 26.3125 -1.078125 C 23.9375 0.367188 21.226562 1.09375 18.1875 1.09375 Z M 18.046875 -3.125 C 20.222656 -3.125 22.160156 -3.671875 23.859375 -4.765625 C 25.566406 -5.859375 26.894531 -7.378906 27.84375 -9.328125 C 28.800781 -11.273438 29.28125 -13.476562 29.28125 -15.9375 C 29.28125 -18.382812 28.800781 -20.582031 27.84375 -22.53125 C 26.894531 -24.488281 25.566406 -26.007812 23.859375 -27.09375 C 22.160156 -28.1875 20.222656 -28.734375 18.046875 -28.734375 C 15.910156 -28.734375 14.003906 -28.1875 12.328125 -27.09375 C 10.648438 -26.007812 9.332031 -24.5 8.375 -22.5625 C 7.425781 -20.632812 6.953125 -18.445312 6.953125 -16 C 6.953125 -13.5 7.425781 -11.273438 8.375 -9.328125 C 9.332031 -7.378906 10.648438 -5.859375 12.328125 -4.765625 C 14.003906 -3.671875 15.910156 -3.125 18.046875 -3.125 Z M 18.046875 -3.125 "/></g></g></g><g fill="#f0f1f0" fill-opacity="1"><g transform="translate(528.416136, 285.70494)"><g><path d="M 19.46875 -32.953125 C 21.695312 -32.953125 23.753906 -32.5 25.640625 -31.59375 C 27.523438 -30.6875 29.019531 -29.347656 30.125 -27.578125 C 31.238281 -25.804688 31.796875 -23.71875 31.796875 -21.3125 L 31.796875 0 L 27.171875 0 L 27.171875 -19.265625 C 27.171875 -25.578125 24.351562 -28.734375 18.71875 -28.734375 C 15.457031 -28.734375 13.007812 -27.578125 11.375 -25.265625 C 9.738281 -22.953125 8.921875 -19.84375 8.921875 -15.9375 L 8.921875 0 L 4.296875 0 L 4.296875 -31.875 L 8.921875 -31.875 L 8.921875 -26.5625 C 10.003906 -28.601562 11.441406 -30.175781 13.234375 -31.28125 C 15.035156 -32.394531 17.113281 -32.953125 19.46875 -32.953125 Z M 19.46875 -32.953125 "/></g></g></g><g fill="#f0f1f0" fill-opacity="1"><g transform="translate(619.445025, 285.70494)"><g><path d="M 6.8125 0 L 6.8125 -31.875 L 11.4375 -31.875 L 11.4375 0 Z M 9.125 -38.0625 C 8.082031 -38.0625 7.207031 -38.425781 6.5 -39.15625 C 5.789062 -39.882812 5.4375 -40.769531 5.4375 -41.8125 C 5.4375 -42.8125 5.789062 -43.660156 6.5 -44.359375 C 7.207031 -45.066406 8.082031 -45.421875 9.125 -45.421875 C 10.125 -45.421875 10.984375 -45.066406 11.703125 -44.359375 C 12.429688 -43.660156 12.796875 -42.785156 12.796875 -41.734375 C 12.796875 -40.742188 12.429688 -39.882812 11.703125 -39.15625 C 10.984375 -38.425781 10.125 -38.0625 9.125 -38.0625 Z M 9.125 -38.0625 "/></g></g></g><g fill="#f0f1f0" fill-opacity="1"><g transform="translate(692.186749, 285.70494)"><g/></g></g></svg>